HIERARCHY
ROOT Hips
{
	OFFSET -0.001795 -0.223333 0.028219
	CHANNELS 6 Xposition Yposition Zposition Zrotation Yrotation Xrotation 
	JOINT LeftUpLeg
	{
		OFFSET 0.069520 -0.091406 -0.006815
		CHANNELS 3 Zrotation Yrotation Xrotation
		JOINT LeftLeg
		{
			OFFSET 0.034277 -0.375199 -0.004496
			CHANNELS 3 Zrotation Yrotation Xrotation
			JOINT LeftFoot
			{
				OFFSET -0.013596 -0.397961 -0.043693
				CHANNELS 3 Zrotation Yrotation Xrotation
				JOINT LeftToe
				{
					OFFSET 0.026358 -0.055791 0.119288
					CHANNELS 3 Zrotation Yrotation Xrotation
					End Site
					{
						OFFSET 0.000000 0.000000 0.000000
					}
				}
			}
		}
	}
	JOINT RightUpLeg
	{
		OFFSET -0.067670 -0.090522 -0.004320
		CHANNELS 3 Zrotation Yrotation Xrotation
		JOINT RightLeg
		{
			OFFSET -0.038290 -0.382569 -0.008850
			CHANNELS 3 Zrotation Yrotation Xrotation
			JOINT RightFoot
			{
				OFFSET 0.015774 -0.398415 -0.042312
				CHANNELS 3 Zrotation Yrotation Xrotation
				JOINT RightToe
				{
					OFFSET -0.025372 -0.048144 0.123348
					CHANNELS 3 Zrotation Yrotation Xrotation
					End Site
					{
						OFFSET 0.000000 0.000000 0.000000
					}
				}
			}
		}
	}
	JOINT Spine
	{
		OFFSET -0.002533 0.108963 -0.026696
		CHANNELS 3 Zrotation Yrotation Xrotation
		JOINT Spine1
		{
			OFFSET 0.005487 0.135180 0.001092
			CHANNELS 3 Zrotation Yrotation Xrotation
			JOINT Spine2
			{
				OFFSET 0.001457 0.052922 0.025425
				CHANNELS 3 Zrotation Yrotation Xrotation
				JOINT Neck
				{
					OFFSET -0.002778 0.213870 -0.042857
					CHANNELS 3 Zrotation Yrotation Xrotation
					JOINT Head
					{
						OFFSET 0.005152 0.064970 0.051349
						CHANNELS 3 Zrotation Yrotation Xrotation
						End Site
						{
							OFFSET 0.000000 0.000000 0.000000
						}
					}
				}
				JOINT LeftShoulder
				{
					OFFSET 0.078845 0.121749 -0.034090
					CHANNELS 3 Zrotation Yrotation Xrotation
					JOINT LeftArm
					{
						OFFSET 0.090977 0.030469 -0.008868
						CHANNELS 3 Zrotation Yrotation Xrotation
						JOINT LeftForeArm
						{
							OFFSET 0.259612 -0.012772 -0.027456
							CHANNELS 3 Zrotation Yrotation Xrotation
							JOINT LeftHand
							{
								OFFSET 0.249234 0.008986 -0.001171
								CHANNELS 3 Zrotation Yrotation Xrotation
								End Site
								{
									OFFSET 0.000000 0.000000 0.000000
								}
							}
						}
					}
				}
				JOINT RightShoulder
				{
					OFFSET -0.081759 0.118833 -0.038615
					CHANNELS 3 Zrotation Yrotation Xrotation
					JOINT RightArm
					{
						OFFSET -0.096012 0.032551 -0.009143
						CHANNELS 3 Zrotation Yrotation Xrotation
						JOINT RightForeArm
						{
							OFFSET -0.253742 -0.013329 -0.021401
							CHANNELS 3 Zrotation Yrotation Xrotation
							JOINT RightHand
							{
								OFFSET -0.255298 0.007772 -0.005559
								CHANNELS 3 Zrotation Yrotation Xrotation
								End Site
								{
									OFFSET 0.000000 0.000000 0.000000
								}
							}
						}
					}
				}
			}
		}
	}
}
MOTION
Frames: 12
Frame Time: 0.050000
0.000000 0.943139 0.000000 -0.232846 -2.725774 6.907815 5.960997 -0.297738 -4.042930 -0.486555 0.174875 -4.033951 1.584767 8.187823 17.906112 0.000000 0.000000 0.000000 -3.898619 0.504336 -4.967571 -3.519382 -0.067453 -5.962717 3.578857 -1.285441 18.301077 0.000000 0.000000 0.000000 5.981262 0.365339 -5.724763 -2.854998 1.311748 -3.076933 -4.133168 5.393017 3.496012 7.847242 -4.083408 -10.703699 0.000000 0.000000 0.000000 -17.337473 -2.545666 -1.467926 -54.357573 -6.011461 -3.489884 -8.435837 -16.399985 1.674963 0.000000 0.000000 0.000000 15.935581 -4.383945 -2.813226 61.502921 6.726992 -2.185284 9.729065 18.817015 2.201606 0.000000 0.000000 0.000000 
0.000218 0.942256 0.000161 -0.271148 -3.379358 7.610780 5.738451 -0.290575 -3.743264 -0.148667 0.206287 -5.670686 1.908940 8.605437 18.157909 0.000000 0.000000 0.000000 -3.672112 0.590483 -6.080346 -3.994391 -0.020003 -5.551998 3.783821 -0.926718 17.974855 0.000000 0.000000 0.000000 6.953807 0.449946 -6.395469 -3.414931 1.546977 -3.263335 -5.110230 6.122981 3.261573 8.908565 -4.608013 -11.415469 0.000000 0.000000 0.000000 -18.318567 -2.335724 -1.858481 -52.920229 -6.303984 -3.171811 -9.399459 -16.572357 1.810365 0.000000 0.000000 0.000000 16.076115 -5.415965 -3.264606 62.379955 6.676715 -2.156762 10.280106 18.268164 2.224808 0.000000 0.000000 0.000000 
0.000339 0.942230 0.000025 0.048342 -3.073738 7.245708 5.301353 -0.296779 -3.813205 0.037350 0.169826 -5.005174 1.755521 8.396912 17.974712 0.000000 0.000000 0.000000 -3.806228 0.580593 -6.029216 -4.359185 0.053515 -4.851226 3.542328 -1.135954 17.606019 0.000000 0.000000 0.000000 6.723861 0.413455 -6.059363 -3.016806 1.364673 -4.115549 -5.555137 5.742094 3.714424 8.605793 -4.685835 -10.186224 0.000000 0.000000 0.000000 -18.211648 -2.747926 -1.573584 -52.915525 -5.712245 -3.495366 -9.100843 -16.145921 1.733838 0.000000 0.000000 0.000000 17.102951 -4.369569 -2.817892 61.222842 6.381663 -2.428145 10.719438 19.333012 2.442877 0.000000 0.000000 0.000000 
0.000419 0.942238 -0.000102 0.123132 -2.946121 7.650844 5.511489 -0.312207 -4.074887 -0.457383 0.216354 -5.400236 1.658810 8.305591 18.142111 0.000000 0.000000 0.000000 -3.767052 0.627700 -6.670093 -4.592292 0.096894 -4.466225 3.425362 -1.285720 17.544411 0.000000 0.000000 0.000000 6.928083 0.429282 -6.258756 -3.410585 1.539311 -3.761421 -5.321685 4.906515 2.763402 8.731292 -4.933705 -9.488330 0.000000 0.000000 0.000000 -18.417899 -2.158087 -1.750950 -52.914425 -6.326665 -3.150966 -8.931344 -16.072706 1.716454 0.000000 0.000000 0.000000 16.098673 -4.224375 -2.837597 61.472731 6.477407 -2.246829 12.070149 19.627518 2.663564 0.000000 0.000000 0.000000 
0.000429 0.942770 -0.000316 0.314293 -2.518214 7.463791 5.149261 -0.322853 -4.161738 -0.121202 0.182888 -5.079850 1.408082 8.021719 18.193109 0.000000 0.000000 0.000000 -3.853244 0.604303 -6.410473 -4.754366 0.111586 -4.443168 3.234330 -1.577208 17.646355 0.000000 0.000000 0.000000 6.730798 0.416249 -6.182371 -3.068474 1.398763 -3.543401 -5.547303 4.667979 2.659333 8.565532 -4.766816 -9.709825 0.000000 0.000000 0.000000 -18.390083 -2.635443 -1.519542 -52.866671 -6.824722 -2.915859 -9.422878 -15.935391 1.766905 0.000000 0.000000 0.000000 15.986364 -4.228966 -2.819079 61.406875 6.668921 -2.132635 12.976798 20.261361 2.919533 0.000000 0.000000 0.000000 
0.000441 0.943164 -0.000437 0.380749 -2.391599 7.611341 5.171525 -0.325941 -4.167010 -0.269262 0.204283 -5.425927 1.286892 7.915411 18.428360 0.000000 0.000000 0.000000 -3.733195 0.605046 -6.400790 -5.089208 0.109539 -4.722385 3.212359 -1.681543 17.870974 0.000000 0.000000 0.000000 6.658492 0.428486 -6.360352 -2.945459 1.345935 -3.555071 -5.542814 4.529589 2.562838 8.897717 -5.045966 -9.466132 0.000000 0.000000 0.000000 -18.662835 -2.540196 -1.595314 -52.413007 -6.850657 -2.855007 -9.753088 -16.282484 1.851926 0.000000 0.000000 0.000000 15.720259 -4.096494 -2.741818 61.765573 7.141486 -1.864354 13.337453 20.199451 2.965531 0.000000 0.000000 0.000000 
0.000468 0.943356 -0.000569 0.441386 -2.108783 7.579621 5.019900 -0.336440 -4.296805 -0.074407 0.185520 -5.251909 1.139771 7.746976 18.418600 0.000000 0.000000 0.000000 -3.672422 0.597837 -6.318452 -5.284271 0.123100 -4.718309 3.080545 -1.874457 17.922442 0.000000 0.000000 0.000000 6.586154 0.429073 -6.407265 -2.903271 1.332851 -3.272672 -5.532936 4.155445 2.313400 8.914731 -4.994441 -9.781523 0.000000 0.000000 0.000000 -18.634131 -2.494945 -1.574249 -52.254187 -6.823427 -2.837919 -10.399377 -16.742897 1.999788 0.000000 0.000000 0.000000 15.536959 -3.815770 -2.624985 62.071396 7.254659 -1.777262 13.439592 20.591373 3.038283 0.000000 0.000000 0.000000 
0.000548 0.943394 -0.000725 0.440551 -1.766278 7.706099 5.019351 -0.354949 -4.589749 -0.017858 0.176609 -5.110834 0.981820 7.559730 18.365402 0.000000 0.000000 0.000000 -3.658065 0.600011 -6.362784 -5.279928 0.119895 -4.775037 2.915746 -2.115244 17.990174 0.000000 0.000000 0.000000 6.492297 0.427829 -6.482805 -2.779331 1.280471 -3.321516 -5.568529 4.078833 2.192651 9.056493 -5.130123 -9.536093 0.000000 0.000000 0.000000 -18.757398 -2.569551 -1.587320 -51.856771 -6.751308 -2.818189 -10.759699 -17.024380 2.081337 0.000000 0.000000 0.000000 15.517317 -3.723465 -2.554625 62.394565 7.508384 -1.622902 13.460048 20.588996 3.046476 0.000000 0.000000 0.000000 
0.000627 0.943418 -0.000876 0.438217 -1.618114 7.663197 4.982199 -0.360067 -4.664965 0.068319 0.165490 -4.960231 0.917427 7.475737 18.303139 0.000000 0.000000 0.000000 -3.681922 0.592149 -6.270840 -5.220738 0.113950 -4.818818 2.850701 -2.209253 18.021884 0.000000 0.000000 0.000000 6.500639 0.426444 -6.478873 -2.740698 1.264277 -3.422445 -5.479866 4.007242 2.252586 9.017743 -5.093932 -9.601398 0.000000 0.000000 0.000000 -18.715887 -2.686282 -1.512782 -51.839572 -6.875760 -2.773596 -10.916417 -16.991930 2.102386 0.000000 0.000000 0.000000 15.561319 -3.492890 -2.440925 62.462933 8.019022 -1.362090 13.316510 20.378854 2.986339 0.000000 0.000000 0.000000 
0.000701 0.943273 -0.000964 0.477997 -1.479551 7.537803 4.936186 -0.363432 -4.723719 0.085862 0.153876 -4.670757 0.868432 7.395418 18.162823 0.000000 0.000000 0.000000 -3.808932 0.584720 -6.207607 -5.060752 0.120277 -4.643246 2.756721 -2.296609 17.900518 0.000000 0.000000 0.000000 6.446195 0.425927 -6.476912 -2.695023 1.246784 -3.295802 -5.476963 4.028110 2.165499 9.088151 -5.104521 -9.738436 0.000000 0.000000 0.000000 -18.607027 -2.701281 -1.518547 -51.694487 -7.230083 -2.603714 -11.250527 -16.785078 2.120501 0.000000 0.000000 0.000000 15.650812 -3.244910 -2.301684 62.382674 8.405030 -1.149989 13.171670 20.263400 2.945749 0.000000 0.000000 0.000000 
0.000773 0.943343 -0.001009 0.512381 -1.455106 7.495547 4.942962 -0.358311 -4.622031 0.000386 0.163760 -4.786022 0.835419 7.362789 18.211081 0.000000 0.000000 0.000000 -3.883725 0.583442 -6.207013 -4.998417 0.123775 -4.557910 2.740375 -2.315197 17.889007 0.000000 0.000000 0.000000 6.471996 0.428191 -6.487640 -2.738182 1.265867 -3.292184 -5.457021 4.081631 2.117130 9.089338 -5.153149 -9.486600 0.000000 0.000000 0.000000 -18.654575 -2.890570 -1.444794 -51.599506 -7.243162 -2.581790 -11.282674 -16.554590 2.093641 0.000000 0.000000 0.000000 15.615425 -3.193961 -2.261278 62.509971 8.743826 -0.958294 13.244157 19.999329 2.915422 0.000000 0.000000 0.000000 
0.000876 0.943268 -0.001054 0.513344 -1.326355 7.503131 5.037338 -0.361057 -4.676985 -0.157288 0.173120 -4.751519 0.774909 7.283869 18.165172 0.000000 0.000000 0.000000 -3.960608 0.583606 -6.230154 -4.859518 0.121787 -4.486797 2.665733 -2.403867 17.854698 0.000000 0.000000 0.000000 6.458572 0.432321 -6.550173 -2.694938 1.248478 -3.214749 -5.355768 3.959520 1.971996 8.859626 -4.997496 -9.467084 0.000000 0.000000 0.000000 -18.700641 -2.802415 -1.485332 -51.679425 -7.419000 -2.498470 -10.982015 -16.116032 1.997443 0.000000 0.000000 0.000000 15.298491 -3.042363 -2.176351 62.649418 9.035444 -0.770526 13.423710 19.704685 2.888830 0.000000 0.000000 0.000000 
